<svg width="197" height="50" viewBox="0 0 197 50" fill="none" xmlns="http://www.w3.org/2000/svg">
<path d="M42.0752 2.74414C42.0464 2.77804 36.7847 8.97888 42.0752 14.2695C47.3804 19.5747 53.418 14.2695 53.418 14.2695L56.1621 17.0137L45.1855 28.1729L51.5146 34.6523C52.272 35.428 52.2844 36.6622 51.543 37.4531C50.7651 38.2828 49.4569 38.3096 48.6455 37.5127L40.8906 29.8975C40.331 29.3478 39.4335 29.3516 38.8789 29.9062C38.3207 30.4644 38.3207 31.3695 38.8789 31.9277L41.6182 34.667C42.2749 35.3237 42.2748 36.3882 41.6182 37.0449C40.9614 37.7016 39.897 37.7016 39.2402 37.0449L36.5879 34.3926C35.9818 33.7864 34.9988 33.7866 34.3926 34.3926C33.7864 34.9988 33.7864 35.9817 34.3926 36.5879L44.6367 46.832C45.2429 47.4382 45.2428 48.4211 44.6367 49.0273C44.0305 49.6335 43.0476 49.6335 42.4414 49.0273L32.1973 38.7832C31.5911 38.177 30.6082 38.1771 30.002 38.7832C29.3957 39.3894 29.3957 40.3723 30.002 40.9785L35.4902 46.4668C36.2981 47.275 36.2982 48.5854 35.4902 49.3936C34.682 50.2018 33.3708 50.2018 32.5625 49.3936L28.3555 45.1855L24.1475 49.3936L7.13477 32.3799L11.1592 28.3555L0 17.0137L2.74414 14.2695C2.78433 14.3136 8.25514 20.2843 14.4521 14.2695C20.6599 8.2443 14.4762 2.87825 14.4521 2.85742L17.0127 0L28.1719 11.1592L39.3311 0L42.0752 2.74414ZM20.123 42.8076L22.3184 45.0029L25.0625 42.2588L22.8672 40.0635L20.123 42.8076ZM15.7324 38.417L17.9277 40.6123L20.6719 37.8682L18.4766 35.6729L15.7324 38.417ZM11.3418 34.0264L13.5371 36.2217L16.2812 33.4775L14.0859 31.2822L11.3418 34.0264ZM25.4277 17.1963L27.9893 19.7578L32.3799 15.3672L43.5391 26.5264L52.1367 17.9277C52.1151 17.9398 46.1621 21.2599 40.6123 15.916C35.6813 11.1677 38.4078 4.23143 38.417 4.20801L25.4277 17.1963ZM12.0732 19.9404C10.861 19.9406 9.87795 20.9235 9.87793 22.1357C9.87793 23.348 10.861 24.3309 12.0732 24.3311C13.2857 24.3311 14.2686 23.3482 14.2686 22.1357C14.2685 20.9234 13.2856 19.9404 12.0732 19.9404ZM16.8301 15.5498C15.6177 15.5498 14.6348 16.5328 14.6348 17.7451C14.6348 18.9575 15.6177 19.9404 16.8301 19.9404C18.0425 19.9404 19.0254 18.9575 19.0254 17.7451C19.0253 16.5328 18.0424 15.5498 16.8301 15.5498ZM21.5859 11.1592C20.3738 11.1594 19.3907 12.1423 19.3906 13.3545C19.3906 14.5668 20.3737 15.5496 21.5859 15.5498C22.7983 15.5498 23.7812 14.5669 23.7812 13.3545C23.7811 12.1422 22.7983 11.1592 21.5859 11.1592Z" fill="url(#paint0_linear_7257_31459)"/>
<path d="M79.944 34.9999V15.6062H72.9339V13.1666H89.6409V15.6062H82.6307V34.9999H79.944ZM92.1526 34.9999V18.7253H94.7776V34.9999H92.1526ZM93.4497 16.3165C92.9144 16.3165 92.482 16.1518 92.1526 15.8224C91.8438 15.493 91.6894 15.071 91.6894 14.5563C91.6894 14.0416 91.8541 13.6298 92.1835 13.321C92.5129 12.9916 92.935 12.8269 93.4497 12.8269C93.9232 12.8269 94.3349 12.9916 94.6849 13.321C95.0555 13.6504 95.2408 14.0622 95.2408 14.5563C95.2408 15.071 95.0658 15.493 94.7158 15.8224C94.3658 16.1518 93.9438 16.3165 93.4497 16.3165ZM98.908 34.9999V13.1666H101.533V25.7354H104.374L109.253 18.7253H112.218L106.783 26.4766L112.681 34.9999H109.593L104.683 28.0206H101.533V34.9999H98.908ZM114.952 34.9999V13.1666H117.577V25.7354H120.418L125.297 18.7253H128.262L122.827 26.4766L128.725 34.9999H125.637L120.727 28.0206H117.577V34.9999H114.952ZM138.037 35.1852C136.308 35.1852 134.877 34.8352 133.744 34.1352C132.612 33.4146 131.768 32.4264 131.212 31.1706C130.656 29.9147 130.378 28.4839 130.378 26.878C130.378 25.2516 130.666 23.8207 131.243 22.5855C131.84 21.3296 132.705 20.3414 133.837 19.6209C134.969 18.9003 136.359 18.54 138.006 18.54C139.282 18.54 140.374 18.7871 141.279 19.2812C142.206 19.7547 142.968 20.3929 143.565 21.1958C144.162 21.9987 144.594 22.884 144.862 23.8516C145.129 24.7987 145.243 25.756 145.201 26.7236C145.181 26.9089 145.16 27.0942 145.14 27.2795C145.14 27.4648 145.129 27.6501 145.109 27.8354H133.034C133.116 28.7824 133.353 29.6368 133.744 30.3985C134.136 31.1603 134.691 31.7676 135.412 32.2205C136.133 32.6529 137.028 32.869 138.099 32.869C138.634 32.869 139.169 32.8073 139.704 32.6838C140.26 32.5396 140.754 32.3029 141.187 31.9735C141.64 31.6441 141.959 31.2014 142.144 30.6456H144.831C144.584 31.6955 144.121 32.5602 143.441 33.2396C142.762 33.8984 141.949 34.3925 141.002 34.7219C140.054 35.0308 139.066 35.1852 138.037 35.1852ZM133.096 25.5501H142.515C142.494 24.6237 142.288 23.8105 141.897 23.1105C141.506 22.4105 140.971 21.8649 140.291 21.4737C139.632 21.0826 138.84 20.887 137.913 20.887C136.905 20.887 136.05 21.1032 135.35 21.5355C134.671 21.9679 134.146 22.534 133.775 23.234C133.405 23.934 133.178 24.706 133.096 25.5501ZM155.307 34.9999C154.072 34.9999 153.073 34.8146 152.312 34.444C151.57 34.0734 151.025 33.497 150.675 32.7146C150.346 31.9323 150.181 30.9441 150.181 29.75V21.0414H147.525V18.7253H150.181V13.8769H152.806V18.7253H157.16V21.0414H152.806V29.4721C152.806 30.5838 153.001 31.4073 153.392 31.9426C153.804 32.4573 154.628 32.7146 155.863 32.7146H157.067V34.9999H155.307Z" fill="#4A5568"/>
<path d="M160.252 34.9999V13.1357H176.094V17.768H165.255V22.6164H174.334V27.1868H165.255V34.9999H160.252ZM185.558 42.5967C184.302 42.5967 183.067 42.432 181.853 42.1026C180.658 41.7732 179.516 41.238 178.425 40.4968L179.969 36.544C180.586 36.9969 181.297 37.3572 182.1 37.6248C182.923 37.8925 183.86 38.0263 184.91 38.0263C186.454 38.0263 187.617 37.6969 188.399 37.0381C189.182 36.3793 189.573 35.3705 189.573 34.0117V33.5176C189.223 33.9499 188.791 34.2896 188.276 34.5367C187.761 34.7837 187.226 34.9587 186.67 35.0616C186.114 35.1852 185.558 35.2469 185.002 35.2469C183.438 35.2469 182.182 34.9175 181.235 34.2587C180.288 33.5999 179.598 32.6941 179.166 31.5411C178.733 30.3882 178.517 29.0912 178.517 27.6501V18.7253H183.366V26.6927C183.366 27.1457 183.397 27.6089 183.458 28.0824C183.52 28.5559 183.654 29.0089 183.86 29.4412C184.066 29.8529 184.375 30.1926 184.786 30.4603C185.219 30.7073 185.774 30.8309 186.454 30.8309C187.38 30.8309 188.06 30.6044 188.492 30.1515C188.924 29.6985 189.202 29.1427 189.326 28.4839C189.449 27.8045 189.511 27.1251 189.511 26.4457V18.7253H194.421V31.8808C194.421 33.4661 194.288 34.9072 194.02 36.2043C193.752 37.5219 193.289 38.6542 192.63 39.6012C191.971 40.5483 191.066 41.2791 189.913 41.7938C188.76 42.3291 187.308 42.5967 185.558 42.5967Z" fill="#DD195B"/>
<defs>
<linearGradient id="paint0_linear_7257_31459" x1="28.0811" y1="0" x2="28.0811" y2="49.9998" gradientUnits="userSpaceOnUse">
<stop stop-color="#FECB00"/>
<stop offset="1" stop-color="#DD195B"/>
</linearGradient>
</defs>
</svg>
