<svg width="134" height="34" viewBox="0 0 134 34" fill="none" xmlns="http://www.w3.org/2000/svg">
<path d="M29.3105 1.86621C29.3105 1.86621 25.703 6.09551 29.3105 9.70312C32.9182 13.3107 37.0234 9.70312 37.0234 9.70312L38.8896 11.5693L31.4248 19.1582L35.7285 23.5645C36.2437 24.0919 36.2523 24.9309 35.748 25.4688C35.2192 26.0328 34.3301 26.0514 33.7783 25.5098L28.5049 20.3301C28.1243 19.9565 27.5138 19.9599 27.1367 20.3369C26.7571 20.7165 26.7571 21.3314 27.1367 21.7109L28.999 23.5742C29.4456 24.0208 29.4456 24.7448 28.999 25.1914C28.5524 25.6379 27.8284 25.6379 27.3818 25.1914L25.5781 23.3877C25.1659 22.9755 24.4972 22.9755 24.085 23.3877C23.673 23.7999 23.6728 24.4687 24.085 24.8809L31.0518 31.8467C31.464 32.2589 31.464 32.9276 31.0518 33.3398C30.6396 33.7518 29.9718 33.7517 29.5596 33.3398L22.5928 26.373C22.1805 25.9608 21.5118 25.9608 21.0996 26.373C20.6874 26.7853 20.6874 27.454 21.0996 27.8662L24.832 31.5977C25.3817 32.1473 25.3817 33.0392 24.832 33.5889C24.2825 34.1383 23.3914 34.1381 22.8418 33.5889L19.9805 30.7275L17.1191 33.5889L5.5498 22.0195L8.28613 19.2822L0.698242 11.5693L2.56445 9.70312C2.57668 9.71655 6.30269 13.8016 10.5254 9.70312C14.755 5.59788 10.5254 1.94336 10.5254 1.94336L12.2676 0L19.8555 7.58887L27.4443 0L29.3105 1.86621ZM14.3818 29.1104L15.875 30.6025L17.7412 28.7373L16.248 27.2441L14.3818 29.1104ZM11.3965 26.124L12.8896 27.6172L14.7549 25.751L13.2627 24.2588L11.3965 26.124ZM8.41113 23.1387L9.90332 24.6318L11.7695 22.7656L10.2773 21.2725L8.41113 23.1387ZM17.9893 11.6943L19.7314 13.4355L22.7168 10.4502L26.5107 14.2441L30.3057 18.0381L36.1523 12.1914C36.1523 12.1914 32.0962 14.4637 28.3154 10.8232C24.9566 7.58881 26.8223 2.86133 26.8223 2.86133L17.9893 11.6943ZM8.9082 13.5596C8.08387 13.5597 7.41602 14.2284 7.41602 15.0527C7.41603 15.8771 8.08388 16.5457 8.9082 16.5459C9.73265 16.5459 10.4014 15.8772 10.4014 15.0527C10.4014 14.2283 9.73266 13.5596 8.9082 13.5596ZM12.1426 10.5742C11.3183 10.5744 10.6504 11.243 10.6504 12.0674C10.6506 12.8916 11.3184 13.5594 12.1426 13.5596C12.9669 13.5596 13.6356 12.8917 13.6357 12.0674C13.6357 11.2429 12.967 10.5742 12.1426 10.5742ZM15.377 7.58887C14.5528 7.58907 13.885 8.25689 13.8848 9.08105C13.8848 9.90539 14.5527 10.574 15.377 10.5742C16.2014 10.5742 16.8701 9.90551 16.8701 9.08105C16.8699 8.25677 16.2013 7.58887 15.377 7.58887Z" fill="url(#paint0_linear_8018_1095)"/>
<path d="M55.0617 24.0004V10.8124H50.2947V9.15343H61.6557V10.8124H56.8887V24.0004H55.0617ZM63.3638 24.0004V12.9334H65.1488V24.0004H63.3638ZM64.2458 11.2954C63.8818 11.2954 63.5878 11.1834 63.3638 10.9594C63.1538 10.7354 63.0488 10.4484 63.0488 10.0984C63.0488 9.74843 63.1608 9.46843 63.3848 9.25843C63.6088 9.03443 63.8958 8.92243 64.2458 8.92243C64.5678 8.92243 64.8478 9.03443 65.0858 9.25843C65.3378 9.48243 65.4638 9.76243 65.4638 10.0984C65.4638 10.4484 65.3448 10.7354 65.1068 10.9594C64.8688 11.1834 64.5818 11.2954 64.2458 11.2954ZM67.9575 24.0004V9.15343H69.7425V17.7004H71.6745L74.9925 12.9334H77.0085L73.3125 18.2044L77.3235 24.0004H75.2235L71.8845 19.2544H69.7425V24.0004H67.9575ZM78.8677 24.0004V9.15343H80.6527V17.7004H82.5847L85.9027 12.9334H87.9187L84.2227 18.2044L88.2337 24.0004H86.1337L82.7947 19.2544H80.6527V24.0004H78.8677ZM94.5658 24.1264C93.3898 24.1264 92.4168 23.8884 91.6468 23.4124C90.8768 22.9224 90.3028 22.2504 89.9248 21.3964C89.5468 20.5424 89.3578 19.5694 89.3578 18.4774C89.3578 17.3714 89.5538 16.3984 89.9458 15.5584C90.3518 14.7044 90.9398 14.0324 91.7098 13.5424C92.4798 13.0524 93.4248 12.8074 94.5448 12.8074C95.4128 12.8074 96.1548 12.9754 96.7708 13.3114C97.4008 13.6334 97.9189 14.0674 98.3249 14.6134C98.7309 15.1594 99.0249 15.7614 99.2069 16.4194C99.3889 17.0634 99.4659 17.7144 99.4378 18.3724C99.4238 18.4984 99.4099 18.6244 99.3959 18.7504C99.3959 18.8764 99.3889 19.0024 99.3749 19.1284H91.1638C91.2198 19.7724 91.3808 20.3534 91.6468 20.8714C91.9128 21.3894 92.2908 21.8024 92.7808 22.1104C93.2708 22.4044 93.8798 22.5514 94.6079 22.5514C94.9718 22.5514 95.3358 22.5094 95.6998 22.4254C96.0778 22.3274 96.4138 22.1664 96.7078 21.9424C97.0159 21.7184 97.2329 21.4174 97.3589 21.0394H99.1859C99.0179 21.7534 98.7029 22.3414 98.2409 22.8034C97.7788 23.2514 97.2258 23.5874 96.5819 23.8114C95.9379 24.0214 95.2659 24.1264 94.5658 24.1264ZM91.2058 17.5744H97.6109C97.5968 16.9444 97.4568 16.3914 97.1908 15.9154C96.9249 15.4394 96.5609 15.0684 96.0989 14.8024C95.6509 14.5364 95.1119 14.4034 94.4818 14.4034C93.7958 14.4034 93.2148 14.5504 92.7388 14.8444C92.2768 15.1384 91.9198 15.5234 91.6678 15.9994C91.4158 16.4754 91.2618 17.0004 91.2058 17.5744ZM106.31 24.0004C105.47 24.0004 104.791 23.8744 104.273 23.6224C103.769 23.3704 103.398 22.9784 103.16 22.4464C102.936 21.9144 102.824 21.2424 102.824 20.4304V14.5084H101.018V12.9334H102.824V9.63643H104.609V12.9334H107.57V14.5084H104.609V20.2414C104.609 20.9974 104.742 21.5574 105.008 21.9214C105.288 22.2714 105.848 22.4464 106.688 22.4464H107.507V24.0004H106.31ZM109.672 24.0004V9.13243H120.445V12.2824H113.074V15.5794H119.248V18.6874H113.074V24.0004H109.672ZM126.881 29.1664C126.027 29.1664 125.187 29.0544 124.361 28.8304C123.549 28.6064 122.772 28.2424 122.03 27.7384L123.08 25.0504C123.5 25.3584 123.983 25.6034 124.529 25.7854C125.089 25.9674 125.726 26.0584 126.44 26.0584C127.49 26.0584 128.281 25.8344 128.813 25.3864C129.345 24.9384 129.611 24.2524 129.611 23.3284V22.9924C129.373 23.2864 129.079 23.5174 128.729 23.6854C128.379 23.8534 128.015 23.9724 127.637 24.0424C127.259 24.1264 126.881 24.1684 126.503 24.1684C125.439 24.1684 124.585 23.9444 123.941 23.4964C123.297 23.0484 122.828 22.4324 122.534 21.6484C122.24 20.8644 122.093 19.9824 122.093 19.0024V12.9334H125.39V18.3514C125.39 18.6594 125.411 18.9744 125.453 19.2964C125.495 19.6184 125.586 19.9264 125.726 20.2204C125.866 20.5004 126.076 20.7314 126.356 20.9134C126.65 21.0814 127.028 21.1654 127.49 21.1654C128.12 21.1654 128.582 21.0114 128.876 20.7034C129.17 20.3954 129.359 20.0174 129.443 19.5694C129.527 19.1074 129.569 18.6454 129.569 18.1834V12.9334H132.908V21.8794C132.908 22.9574 132.817 23.9374 132.635 24.8194C132.453 25.7154 132.138 26.4854 131.69 27.1294C131.242 27.7734 130.626 28.2704 129.842 28.6204C129.058 28.9844 128.071 29.1664 126.881 29.1664Z" fill="white"/>
<defs>
<linearGradient id="paint0_linear_8018_1095" x1="19.7939" y1="0" x2="19.7939" y2="34.0009" gradientUnits="userSpaceOnUse">
<stop stop-color="#FECB00"/>
<stop offset="1" stop-color="#DD195B"/>
</linearGradient>
</defs>
</svg>
